<?xml version="1.0" encoding="utf-8"?>
<!-- Generator: Adobe Illustrator 17.1.0, SVG Export Plug-In . SVG Version: 6.00 Build 0)  -->
<!DOCTYPE svg PUBLIC "-//W3C//DTD SVG 1.1//EN" "http://www.w3.org/Graphics/SVG/1.1/DTD/svg11.dtd">
<svg version="1.1" id="Layer_1" xmlns="http://www.w3.org/2000/svg" xmlns:xlink="http://www.w3.org/1999/xlink" x="0px" y="0px"
	 viewBox="0 35.4 216 73.3" enable-background="new 0 35.4 216 73.3" xml:space="preserve">
<g>
	<g>
		<g>
			<defs>
				<rect id="SVGID_1_" x="0.1" y="35.4" width="215.8" height="73.3"/>
			</defs>
			<clipPath id="SVGID_2_">
				<use xlink:href="#SVGID_1_"  overflow="visible"/>
			</clipPath>
			<rect x="0.1" y="35.4" clip-path="url(#SVGID_2_)" fill="#ABABAB" width="215.8" height="73.3"/>
		</g>
	</g>
	<g>
		<g>
			<defs>
				<rect id="SVGID_3_" x="0.1" y="35.4" width="215.8" height="73.3"/>
			</defs>
			<clipPath id="SVGID_4_">
				<use xlink:href="#SVGID_3_"  overflow="visible"/>
			</clipPath>
			<path clip-path="url(#SVGID_4_)" fill="#FAF3EE" d="M55,10.5c2.4,0.1,4.7,0.2,7.1,0.3c1.7,0.1,2.3,0.9,2.3,2.6
				c-0.6,18.2-1.2,36.4-1.8,54.6c-0.1,3.3-1.6,6.1-4.1,8.2c-1.8,1.5-2.5,3.3-2.5,5.6c0,6.4-0.2,12.8-0.3,19.2c0,3.1-0.3,3.4-3.3,3.4
				c-4.3-0.1-4.1,0-3.8-4.5c0.4-6.6,0.6-13.1,0.7-19.7c0-1.3-0.8-2.8-1.7-3.8c-3.2-3.2-4.4-6.9-4.1-11.4c0.8-17.2,1.4-34.5,2.1-51.7
				c0.1-3,0.4-3.3,3.5-3.2c2,0,4,0.2,6.1,0.2C55,10.4,55,10.5,55,10.5z"/>
		</g>
	</g>
	<g>
		<g>
			<defs>
				<rect id="SVGID_5_" x="0.1" y="35.4" width="215.8" height="73.3"/>
			</defs>
			<clipPath id="SVGID_6_">
				<use xlink:href="#SVGID_5_"  overflow="visible"/>
			</clipPath>
			<path clip-path="url(#SVGID_6_)" fill="#FAF3EE" d="M25.8,79c2,5,2.7,10.2,2.5,15.6c-0.2,9.4-0.5,18.8-0.8,28.2
				c-0.1,4-1.2,5.2-5.2,5.2c-3.7,0-7.4-0.1-11.1-0.4c-2.7-0.2-4-1.7-3.9-4.4c0.2-10.7,0.6-21.4,0.9-32c0.2-5.2,1.9-10,3.9-14.7
				c2.2-5.1,3.3-10.3,3.3-15.9c0-3.7,0.5-7.3,0.7-11c0.1-2.7,2.1-1.7,3.4-1.7s3-0.5,3,2C22.4,52.7,23.1,72.4,25.8,79z"/>
		</g>
	</g>
	<g>
		<g>
			<defs>
				<rect id="SVGID_7_" x="0.1" y="35.4" width="215.8" height="73.3"/>
			</defs>
			<clipPath id="SVGID_8_">
				<use xlink:href="#SVGID_7_"  overflow="visible"/>
			</clipPath>
			<path clip-path="url(#SVGID_8_)" fill="#E5D300" d="M52.4,10c2.4,0,4.7,0,7.1,0c1.7,0,2.3,0.8,2.4,2.5C62,30.8,62.2,49,62.3,67.2
				c0,3.3-1.3,6.2-3.8,8.4c-1.7,1.6-2.4,3.4-2.3,5.7c0.2,6.4,0.3,12.8,0.5,19.2c0.1,3.1-0.2,3.4-3.1,3.5c-4.3,0.1-4.1,0.1-4-4.3
				c0.2-6.6,0.1-13.2-0.1-19.7c0-1.3-0.9-2.8-1.9-3.7c-3.3-3.1-4.6-6.7-4.6-11.2c0.1-17.3,0-34.5,0-51.8c0-3,0.3-3.3,3.3-3.4
				C48.3,9.9,50.3,9.9,52.4,10C52.4,9.9,52.4,10,52.4,10z"/>
		</g>
	</g>
	<g>
		<g>
			<defs>
				<rect id="SVGID_9_" x="0.1" y="35.4" width="215.8" height="73.3"/>
			</defs>
			<clipPath id="SVGID_10_">
				<use xlink:href="#SVGID_9_"  overflow="visible"/>
			</clipPath>
			<path clip-path="url(#SVGID_10_)" fill="#FAF3EE" d="M115.4,104.8c1.9-0.1,3.6-0.2,5.9-0.3c-0.1-1.7-0.1-3.3-0.3-4.9
				c-0.8-9-0.3-17.8,3.4-26.1c2.7-6,3.6-12.4,3.2-19c-0.4-7.1-0.9-14.2-1.1-21.3c-0.1-2.2-1-3.3-3-3.2c-6.2,0.2-12.5,0.6-18.7,1
				c-1.9,0.1-2.8,1.2-2.7,3.5c0.6,7.8,0.8,15.7,1.4,23.6c0.4,6.1,2.5,11.8,5.5,17.2c4.5,8.2,6.1,17.1,5.6,26.4
				C114.5,102.6,115.1,103.6,115.4,104.8z"/>
		</g>
	</g>
	<g>
		<g>
			<defs>
				<rect id="SVGID_11_" x="0.1" y="35.4" width="215.8" height="73.3"/>
			</defs>
			<clipPath id="SVGID_12_">
				<use xlink:href="#SVGID_11_"  overflow="visible"/>
			</clipPath>
			<path clip-path="url(#SVGID_12_)" fill="#FAF3EE" d="M86.8,132.3c-2.3,0-4.6,0.1-6.8,0.1c-1.8,0-2.7-0.9-2.8-2.8
				c-0.2-16-0.4-32-0.6-48c0-3.1,0.7-6.1,3.1-8.1c2.3-1.9,2.9-4.3,3-7c0-4.8,0-9.6,0-14.3c0-3.1,0.1-3.3,3.8-3.3
				c2.8,0,3,0.4,3.1,3.3c0.1,5.3,0.1,10.6,0.5,15.9c0.1,1.7,1.2,3.5,2.4,4.8c2.3,2.4,3.6,5.1,3.7,8.5c0.1,15.8,0.2,31.6,0.3,47.5
				c0,3-0.6,3.6-3.5,3.7C90.8,132.3,88.8,132.3,86.8,132.3z"/>
		</g>
	</g>
	<g>
		<g>
			<defs>
				<rect id="SVGID_13_" x="0.1" y="35.4" width="215.8" height="73.3"/>
			</defs>
			<clipPath id="SVGID_14_">
				<use xlink:href="#SVGID_13_"  overflow="visible"/>
			</clipPath>
			<path clip-path="url(#SVGID_14_)" fill="#FF2900" d="M85.7,134c-2.3,0-4.6,0-6.8,0c-1.8,0-2.7-0.9-2.7-2.9c0-16-0.1-32-0.2-48
				c0-3.1,0.8-6.1,3.2-8.1c2.3-1.9,3-4.3,3-7c0.1-4.8,0.1-9.6,0.1-14.3c0-3.1,0.1-3.3,3.8-3.3c2.8,0,3,0.4,3,3.3
				c0,5.3,0,10.6,0.4,15.9c0.1,1.7,1.2,3.5,2.3,4.8c2.3,2.4,3.6,5.2,3.6,8.5c0,15.8,0,31.6-0.1,47.5c0,3-0.6,3.6-3.5,3.6
				C89.8,134.1,87.8,134,85.7,134z"/>
		</g>
	</g>
	<g>
		<g>
			<defs>
				<rect id="SVGID_15_" x="0.1" y="35.4" width="215.8" height="73.3"/>
			</defs>
			<clipPath id="SVGID_16_">
				<use xlink:href="#SVGID_15_"  overflow="visible"/>
			</clipPath>
			<path clip-path="url(#SVGID_16_)" fill="#86E1CD" d="M24.3,79.4c2.1,4.9,3,10.1,3,15.5c0.1,9.4,0.1,18.8,0.2,28.2
				c0,4-1,5.3-5,5.4c-3.7,0.1-7.4,0.1-11.1-0.1c-2.7-0.1-4-1.5-4.1-4.2c-0.1-10.7-0.2-21.4-0.2-32c0-5.2,1.5-10.1,3.4-14.9
				c2-5.2,2.9-10.5,2.8-16c-0.1-3.7,0.3-7.3,0.3-11c0-2.7,2-1.8,3.3-1.9c1.3,0,3-0.6,3.1,1.9C20,53.2,21.5,72.9,24.3,79.4z"/>
		</g>
	</g>
	<g>
		<g>
			<defs>
				<rect id="SVGID_17_" x="0.1" y="35.4" width="215.8" height="73.3"/>
			</defs>
			<clipPath id="SVGID_18_">
				<use xlink:href="#SVGID_17_"  overflow="visible"/>
			</clipPath>
			<path clip-path="url(#SVGID_18_)" fill="#5E1957" d="M114.4,104c1.9,0,3.6,0,5.9,0c0-1.7,0-3.3,0-4.9c-0.3-9,0.7-17.8,4.8-25.9
				c3-5.9,4.2-12.2,4.2-18.8c0-7.1-0.1-14.2,0-21.3c0-2.2-0.8-3.4-2.8-3.4c-6.2-0.1-12.5-0.1-18.7,0c-1.9,0-2.9,1.1-2.9,3.3
				c0.1,7.9-0.1,15.7,0.1,23.6c0.1,6.1,1.8,11.9,4.5,17.4C113.7,82.5,114.1,102.8,114.4,104z"/>
		</g>
	</g>
</g>
</svg>
