<?xml version="1.0" encoding="utf-8"?>
<!-- Generator: Adobe Illustrator 17.1.0, SVG Export Plug-In . SVG Version: 6.00 Build 0)  -->
<!DOCTYPE svg PUBLIC "-//W3C//DTD SVG 1.1//EN" "http://www.w3.org/Graphics/SVG/1.1/DTD/svg11.dtd">
<svg version="1.1" id="Layer_1" xmlns="http://www.w3.org/2000/svg" xmlns:xlink="http://www.w3.org/1999/xlink" x="0px" y="0px"
	 viewBox="-86 88 1132 384" enable-background="new -86 88 1132 384" xml:space="preserve">
<g>
	<defs>
		<rect id="SVGID_1_" x="-85.5" y="88" width="1130.9" height="384"/>
	</defs>
	<clipPath id="SVGID_2_">
		<use xlink:href="#SVGID_1_"  overflow="visible"/>
	</clipPath>
	<rect x="-85.5" y="88" clip-path="url(#SVGID_2_)" fill="#ABABAB" width="1130.9" height="384"/>
	<path clip-path="url(#SVGID_2_)" fill="#FAF3EE" d="M202.2-42.1c12.4,0.5,24.7,1,37.1,1.6c8.7,0.4,12.2,4.6,11.8,13.8
		c-3.3,95.3-6.2,190.7-9.5,286c-0.6,17.4-8.3,32-21.5,43.1c-9.2,7.8-13.1,17.1-13.1,29.2c-0.1,33.6-1.1,67.1-1.4,100.7
		c-0.1,16-1.6,17.9-17.2,17.6c-22.7-0.3-21.7-0.2-20.1-23.4c2.3-34.4,3.4-68.9,3.8-103.3c0.1-6.6-4.2-14.8-9-19.7
		c-16.6-16.7-22.8-36-21.7-59.5c4.1-90.4,7.4-180.8,11-271.2c0.6-15.9,2.1-17.4,18.2-17c10.6,0.2,21.2,0.9,31.8,1.3
		C202.2-42.7,202.2-42.4,202.2-42.1z"/>
	<path clip-path="url(#SVGID_2_)" fill="#FAF3EE" d="M33.1,207.7c-4.5,38.6,2.1,74.2,15.9,108.9c10.3,26.1,13.9,53.6,13.1,81.6
		c-1.3,49.3-2.7,98.5-4.1,147.7c-0.6,21.2-6.3,27.4-27.2,27.5c-19.4,0.1-38.8-0.7-58.2-2.3c-14.3-1.2-21-8.7-20.7-22.9
		c1.2-56,2.9-111.9,4.5-167.9c0.8-27.4,9.9-52.6,20.5-77.3c11.6-26.6,17.1-54.2,17.3-83.4c0.1-19.2,2.7-38.3,3.6-57.5
		c0.7-13.9,10.9-9.1,17.7-9.1c6.6,0,15.8-2.4,15.7,10.4C31.2,178.7,32.5,193.8,33.1,207.7z"/>
	<path clip-path="url(#SVGID_2_)" fill="#E5D300" d="M188.6-44.8c12.4,0,24.7,0,37.1,0c8.7,0,12.3,4,12.4,13.3
		c0.6,95.4,1.7,190.8,2.3,286.2c0.1,17.4-7,32.3-19.7,44c-8.9,8.2-12.4,17.6-11.9,29.7c1.3,33.5,1.7,67.1,2.7,100.7
		c0.5,16-0.9,17.9-16.5,18.3c-22.7,0.6-21.7,0.7-21.1-22.6c0.9-34.5,0.6-69-0.5-103.4c-0.2-6.6-4.8-14.7-9.8-19.3
		c-17.2-16-24.3-35-24.2-58.5c0.4-90.5-0.1-180.9-0.2-271.4c0-15.9,1.4-17.4,17.5-17.7c10.6-0.2,21.2,0,31.8,0
		C188.6-45.3,188.6-45.1,188.6-44.8z"/>
	<path clip-path="url(#SVGID_2_)" fill="#FAF3EE" d="M518.7,451.7c10.1-0.6,18.9-1.1,30.9-1.7c-0.5-8.7-0.7-17.2-1.4-25.6
		c-4-47-1.4-93.1,18-136.9c14-31.7,18.7-65.1,16.7-99.6c-2.1-37.1-4.5-74.3-5.8-111.5c-0.4-11.5-5.4-17.3-15.6-16.9
		c-32.7,1.2-65.3,3.1-97.9,5.4c-10.1,0.7-14.9,6.4-14.1,18.2c2.9,41.1,4.2,82.4,7.2,123.5c2.3,32.2,12.9,61.7,28.6,89.9
		c23.8,42.8,32,89.5,29.3,138.4C514.1,440.2,517,445.6,518.7,451.7z"/>
	<path clip-path="url(#SVGID_2_)" fill="#FAF3EE" d="M368.7,596c-11.9,0.1-23.9,0.3-35.8,0.3c-9.6,0-14.4-4.7-14.5-14.9
		c-0.9-83.8-2.1-167.6-2.9-251.4c-0.2-16.2,3.7-31.9,16.3-42.5c11.9-10,15.4-22.4,15.5-36.8c0.2-25.1,0.2-50.2,0-75.2
		c-0.2-16.5,0.6-17.4,19.8-17.4c14.7,0,15.9,2,16.1,17.2c0.3,27.7,0.5,55.5,2.7,83.2c0.7,8.8,6.2,18.6,12.4,25.1
		c12,12.7,19,26.9,19.2,44.3c0.6,82.9,1.2,165.8,1.5,248.7c0.1,15.9-3,18.9-18.5,19.2C389.9,595.9,379.3,595.9,368.7,596z"/>
	<path clip-path="url(#SVGID_2_)" fill="#FF2900" d="M363.3,605.1c-11.9,0-23.9,0.1-35.8,0c-9.6-0.1-14.4-4.8-14.4-15
		c-0.2-83.8-0.7-167.6-0.8-251.4c0-16.2,4-31.8,16.7-42.4c11.9-9.9,15.6-22.3,15.8-36.6c0.4-25.1,0.7-50.2,0.6-75.2
		c0-16.5,0.7-17.4,20-17.2c14.7,0.1,15.9,2.1,15.9,17.3c0.1,27.7,0,55.5,2,83.2c0.6,8.8,6.1,18.6,12.2,25.2
		c11.9,12.8,18.8,27,18.8,44.4c0,82.9-0.2,165.8-0.5,248.7c-0.1,15.9-3.2,18.9-18.6,19C384.5,605.2,373.9,605.1,363.3,605.1z"/>
	<path clip-path="url(#SVGID_2_)" fill="#86E1CD" d="M21.9,210.7c-3.2,38.8,4.6,74.1,19.5,108.3c11.2,25.7,15.7,53,15.9,81.1
		c0.3,49.3,0.6,98.5,0.8,147.8c0.1,21.2-5.4,27.6-26.2,28.4C12.5,577-7,576.9-26.3,576c-14.3-0.7-21.2-8-21.4-22.1
		c-0.7-56-0.9-112-1.2-167.9c-0.1-27.4,8.1-53,17.9-77.9c10.7-27,15.3-54.8,14.5-83.9c-0.5-19.2,1.4-38.4,1.7-57.6
		c0.2-13.9,10.6-9.5,17.3-9.7c6.6-0.2,15.7-3,16.1,9.8C19,181.7,20.8,196.8,21.9,210.7z"/>
	<path clip-path="url(#SVGID_2_)" fill="#5E1957" d="M513.4,447.5c10.2,0,19,0,30.9,0c0-8.7,0.2-17.2,0-25.6
		c-1.5-47.2,3.7-93.1,25.4-135.7c15.8-30.9,22.2-63.9,22.1-98.5c-0.1-37.2-0.5-74.4,0.2-111.6c0.2-11.6-4.4-17.6-14.7-17.8
		c-32.7-0.6-65.4-0.6-98.1-0.1c-10.1,0.2-15.2,5.6-15,17.4c0.7,41.2-0.3,82.5,0.4,123.7c0.6,32.2,9.5,62.4,23.6,91.4
		c21.4,44.1,27.1,91.2,21.7,139.9C509.6,435.7,512.1,441.3,513.4,447.5z"/>
</g>
</svg>
