<?xml version="1.0" encoding="utf-8"?>
<!-- Generator: Adobe Illustrator 17.1.0, SVG Export Plug-In . SVG Version: 6.00 Build 0)  -->
<!DOCTYPE svg PUBLIC "-//W3C//DTD SVG 1.1//EN" "http://www.w3.org/Graphics/SVG/1.1/DTD/svg11.dtd">
<svg version="1.1" id="Layer_1" xmlns="http://www.w3.org/2000/svg" xmlns:xlink="http://www.w3.org/1999/xlink" x="0px" y="0px"
	 viewBox="-7.5 0 223.5 149" enable-background="new -7.5 0 223.5 149" xml:space="preserve">
<g>
	<path fill="#B73242" d="M10.4,107.6c3.1,5.3,6.2,10.7,9.9,15.7c0.9,1.3,2,2.5,3.5,3.3c0.3,0.6,0.5,1.2,1.1,1.5
		c0.2,1.1,1.8,2.4,0.7,3.2c-1.1,0.8-1.9-1-2.8-1.6c-2-1.3-3.9-2.7-5.9-3.9c-3.3-2-5.9-4.5-7-8.5c-0.8-2.9-2.4-5.4-4.7-7.6
		c-2.1-2-2.7-4.9-3.7-7.5c-1.4-3.9-1.9-8-3.2-11.9c-0.4-1.1-0.1-2.5-0.2-3.8c-0.1-2-1-3.8-1-5.8c-0.1-3.7-0.4-7.4-0.6-11.1
		c0.2-0.9,0.3-1.8,0-2.7c0.1-1.1,0.3-2.2,0.4-3.3c0.5-1.9,1-3.9,1.5-5.8c0.6-0.9,0.5-2.1,0.9-3.1c1.4-3.9,2.9-7.8,5.5-11.1
		c0.9-1.2,1.6-2.5,2.4-3.8c0.8-0.7,1.3-1.5,1.4-2.6c1-2.4,3.1-3.9,4.4-6.1c0.7-0.4,1.8-0.6,1.7-1.8c-1.1-0.1-1.4,0.8-2,1.2
		c-0.4-0.6-0.4-1.2,0.1-1.7c2.7-2.6,4.9-5.6,7.9-7.8c3-2.2,5.9-4.5,8.4-7.3c1.3-1.5,3-2.4,5-2.7c3.1-0.4,5.8-1.7,8.4-3.2
		c5.7-3.3,12-5.3,18.5-6.1c2.2-0.3,4.3-0.9,6.4-1.7c0.7,0.2,1.3,0,1.9-0.4c5.6-1,11.1-0.8,16.6,0.8C88.8,1.3,92,1.7,95.2,2
		c2.2,0.7,4.3,1.4,6.5,2c0,0,0,0,0,0c0.5,0.6,1.1,1,1.8,1.2c1.1,1.2,2.4,2.2,3.8,3.1c0.4,0.7,1,1.2,1.8,1.3c0,0,0,0,0,0
		c1.8,1.3,3.9,1.8,6,2.5c0.6,0.6,1.3,0.9,2.1,1.2c2.8,1.8,4.6,4.5,6.8,6.9c2.6,2.9,5.5,5.7,7.3,9.1c1.3,2.2,2.8,4.4,3.6,6.9
		c-1.8-1-2.8-2.8-3.8-4.4c-1.2-2-2.5-3.8-4.4-5.2c-0.4-0.3-0.9-0.6-1.2-1.2c-2.4-4.4-6.7-6.7-10.7-9.3c-0.8-0.7-1.8-1.1-2.9-1.2
		c-2.4-1.2-5.3-1.1-7.5-2.8c-1.2-1.8-2.6-3.1-4.9-2.8c-0.7,0.1-1.4-0.2-1.9-0.7c-0.6-0.5-1.4-1-2.2-0.9c-2.4,0.3-4.7-0.1-7-1
		C86.7,6,86,6.9,86.3,9c-1.8,0.2-3.4,1.8-5.5,0.1c-1.2-1-2.9-0.6-4.2,0.5c-2.9,2.7-6.4,3.2-10.2,2.7c-0.3,0-0.6-0.1-0.9-0.1
		c-7.5,0.5-15,0.9-22.2,3.5c-2.4,0.9-4.5,2.1-6.6,3.6c-5.8,4.2-10.4,9.4-14.1,15.4c-1.9,2.7-3.1,5.7-4.1,8.7
		c-1.1,2.6-2.3,5.1-3.4,7.7c-0.7,0.8-1.3,1.6-1.6,2.7c0,0,0,0,0,0c-0.6,0.5-1.1,1-1.3,1.8c-1.2,1-1.3,2.5-1.9,3.8
		c-0.6,0.9-0.9,1.9-0.8,3c-0.8,2.7-1,5.5-0.5,8.3c0.6,3.8,0.7,7.6,2.3,11.2c1.3,2.9,1.8,6.2,2.7,9.3c1.7,6,4.6,11.4,7.7,16.7
		c1.2,2.1,2.3,4.2,3.4,6.4c0.4,0.7,0.6,1.5,0.7,2.3c0.1,1.8-1.1,2.6-2.7,1.7c-1.5-0.8-2.6-2.3-3.7-3.5c-0.7-0.7-1.4-1.5-2.1-2.2
		c-0.1-0.5-0.3-0.9-0.8-1c-0.9-1.6-1.9-3.2-3.1-4.6c-0.4-0.8-0.8-1.6-1.2-2.4c-2.9-5-5.7-10-7.3-15.5c-1-3.4-1.9-6.8-0.4-10.3
		C5,77.6,4.9,76.3,4.9,75c-0.1-4-0.1-8.1,0.5-12.1c0.1-1,1-2,0.1-3.2C4.1,60,3.6,61,3.3,62c-0.7,2.2-1.4,4.4-1.4,6.8
		c0,3.2-0.1,6.4-1,9.6c-0.6,2.2-0.4,4.4,0.4,6.5c0.8,2,1.6,3.9,2.4,5.9C5,94.6,7.2,98.1,8,102.1C8.5,104.1,9.2,105.9,10.4,107.6z"/>
	<path fill="#B73242" d="M73.3,134.8c1.8,0.7,3.7,0.7,5.6,0.4c3.3-0.5,6.6-0.8,9.9-0.4c3.2,0.3,6.1-1,9.2-1.6
		c6.4-1.2,11.8-4.4,16.7-8.6c1-0.8,2-1.7,3-2.6c1.4-0.9,3-1.5,4.2-2.7c1.8-1,3-2.7,4.3-4.2c0.6-0.3,1.1-0.7,1.4-1.3
		c1.2-0.5,1.5-1.9,2.5-2.7c1.3-1.4,1.8-3.2,2.4-4.9c0.6-0.8,1.1-1.7,1.8-2.4c0.4-0.5,1-1.1,1.8-0.7c0.7,0.3,0.9,1,1,1.7
		c0.2,0.7-0.2,1.4-0.4,2c-0.7,0.6-1.1,1.3-1.4,2.2c-3.2,4-6.3,8.1-10.2,11.4c-3.9,3.3-7.8,6.6-11.6,10.1c-1.2,1.1-3,1.5-4.7,2
		c-1.8,0.5-3.3,1.3-4.7,2.5c-1.8,1.6-4.3,2.2-6.2,3.6c-5.1,3.8-11,4.9-16.9,5.9c-2.8,0.5-5.6,0.8-8.3,1.5c-3.2,0.9-6.3,0.5-9.4-0.3
		c-1.8-0.5-3.5-0.7-5.3-0.4c-3.1,0.4-6.2-0.1-8.9-1.9c-1.3-0.9-2.7-1.4-4.1-1.6c-0.6-0.4-1.2-0.6-1.9-0.6c-1.6-0.7-3.2-1-4.9-1.2
		c-0.9-0.1-1.2-0.6-1.2-1.4c0-0.7,0.7-1,1.2-1.1c0.9-0.1,1.8-0.1,2.7-0.2c2.3,0.9,4.7,1.8,7,2.8c0.8,0.3,1.7,0.7,2.6,0.6
		c2.6-0.3,5,0.4,7.3,1.5c1.1,0.6,2.3,0.8,3.5,0.8c0.7,0,1.4-0.1,1.6-0.8c-0.3-0.6-0.7-0.7-1.1-0.7c-2.4-0.1-4.4-1-6.5-2.1
		c-1.9-1-3.8-2.5-6.1-2.4c-3.3,0.1-6-1.3-8.7-2.8c-0.9-0.9-2-1.7-3.2-2.2c-2.8-1.1-4.7-3.1-6.4-5.5c-0.5-0.7-1.4-1.5-0.9-2.4
		c0.5-1,1.6-0.3,2.5-0.4c0.9,0.5,1.7,1,2.7,1.1c0,0,0.3,0.1,0.3,0.1c1,0.5,2.1,0.8,3.2,0.9c4.3,1.3,7.6,3.8,9.8,7.9
		c1.6,3,2.9,3.2,5.9,1.5c1.3-0.7,2.5-0.6,3.8-0.6c4.7,0,9.4,0.1,14.2,0.2C72.4,135,72.9,134.9,73.3,134.8z"/>
	<path fill="#B73242" d="M101.5,16.3c-0.5,0.2-1.1,0.2-1.4-0.1c-1.7-1.7-4.5-1.7-5.9-4c-0.3-0.5-0.8-0.6-1.3-0.6
		c-1.6,0-2.4-1-3.1-2.2c1-0.7,1.9-0.2,2.8,0.1c3.7,0.9,6.6,3.5,10.2,4.8c1,1.4,2.8,1.9,4.1,3c0.9,0.8,2,1.3,2.6,2.4
		c-1,0.3-1.6-0.6-2.4-0.8c-0.4-0.3-0.9-0.7-1.2-0.2c-0.4,0.6,0.3,0.9,0.7,1.2c0.3,0.4,0.8,0.8,0.9,1.3c-2.1-1.1-4.4-2-5.5-4.4
		c0.2-0.1,0.4-0.3,0.6-0.4c-0.2-0.2-0.4-0.3-0.6-0.5c0,0-0.2-0.1-0.2-0.1c-0.2-0.3-0.6-0.7-0.9-0.3
		C100.8,15.7,101.2,16.1,101.5,16.3z"/>
	<path fill="#B73242" d="M40.1,134c2.7,1.5,5.5,2.9,8.7,2.8c2.3-0.1,4.2,1.4,6.1,2.4c2.1,1.1,4.1,2,6.5,2.1c0.4,0,0.8,0.1,1.1,0.7
		c-0.2,0.7-0.9,0.8-1.6,0.8c-1.2,0.1-2.4-0.2-3.5-0.8c-2.3-1.2-4.6-1.9-7.3-1.5c-0.9,0.1-1.8-0.2-2.6-0.6c-2.3-0.9-4.7-1.9-7-2.8
		C40.1,136.2,40.4,135.1,40.1,134z"/>
	<path fill="#B73242" d="M102.8,14.2c-3.5-1.3-6.4-3.9-10.2-4.8c-0.9-0.2-1.8-0.8-2.8-0.1c-1.1-1.3-2.3-1-3.6-0.4
		c-0.2-2.1,0.4-3,1.9-2.4c2.3,0.9,4.6,1.3,7,1C96,7.5,96.8,8,97.4,8.5c0.6,0.5,1.2,0.8,1.9,0.7c2.3-0.3,3.8,1,4.9,2.8
		C103.3,12.4,102.8,13.2,102.8,14.2z"/>
	<path fill="#B73242" d="M132.5,106.2c-0.5,1.8-1.1,3.5-2.4,4.9c-1.8-0.9-2.2-2.9-3.2-4.3c0.3-0.7,0.4-1.6,1-2.1
		C129.3,105.7,130.7,106.6,132.5,106.2z"/>
	<path fill="#B73242" d="M127.6,103c-0.8-1.6-0.1-3.2,0.5-4.6c0.8-1.9,2.6-1.9,4.1-0.2c-0.3,0.4-0.3,0.8-0.1,1.2c0,0,0-0.1,0-0.1
		c-0.4,0.2-0.8,0.4-0.9,0.9c0,1.5-1.2,1.9-2.3,2.3c-0.4-0.4-0.7-0.4-0.7,0.3l0-0.1C127.9,102.8,127.7,102.9,127.6,103z"/>
	<path fill="#B73242" d="M18.6,43.6c1-3.1,2.2-6.1,4.1-8.7c0.4,0.8,0.8,1.7,0.1,2.5c-1.2,1.4-1.9,3.1-2.4,4.8
		C20.1,43.3,19.4,43.5,18.6,43.6z"/>
	<path fill="#B73242" d="M122,119.4c-1.2,1.2-2.8,1.8-4.2,2.7c-0.8-2.6-0.8-2.6,1.3-3.8c0.3-0.3,0.7-0.5,0.8-0.9c0,0,0,0.1,0,0.1
		c0.2-0.1,0.3-0.2,0.5-0.3C121,117.9,121.5,118.6,122,119.4z"/>
	<path fill="#B73242" d="M101.7,4c-2.2-0.7-4.3-1.4-6.5-2c0.1-0.2,0.1-0.4,0.2-0.5c1-0.8,2.1-0.3,3,0.2C99.6,2.4,101.5,2,101.7,4z"
		/>
	<path fill="#B73242" d="M115,12.1c-2-0.7-4.2-1.1-6-2.5C112.3,9,114,9.7,115,12.1z"/>
	<path fill="#B73242" d="M107.6,21.1c-0.1-0.6-0.5-0.9-0.9-1.3c0.1-0.3,0.3-0.6,0.4-1c0.8,0.2,1.4,1.1,2.4,0.8
		c0.2,1,1.4,2.1-0.4,2.8c-0.2-0.4-0.2-0.9-0.8-0.9c0,0,0.1,0,0.1,0C108.1,21.2,107.9,20.9,107.6,21.1L107.6,21.1z"/>
	<path fill="#B73242" d="M124.5,113.2c-1.1,0-1.5,1.6-3,1.1c0.6-1.5,1.3-2.6,3.2-1.7C124.8,112.8,124.8,113,124.5,113.2z"/>
	<path fill="#B73242" d="M128,104.7c-0.6,0.6-0.7,1.4-1,2.1c-0.6,0.1-1.2,0.4-0.9-0.7c0.3-1,1-1.8,1.7-2.6c0,0-0.1,0-0.1,0
		C128.2,103.8,127.9,104.3,128,104.7z"/>
	<path fill="#B73242" d="M127.7,113.9c-0.2,0.7-0.8,1-1.4,1.3c-0.3-0.7-0.6-1.3-0.9-2c-0.1-0.3-0.1-0.5,0.2-0.6
		C126.6,112.5,127.3,112.9,127.7,113.9z"/>
	<path fill="#B73242" d="M117.1,13.3c-0.8-0.3-1.5-0.6-2.1-1.2c0.5-0.3,1-0.6,1.7-0.5C117.7,11.9,117.9,12.4,117.1,13.3z"/>
	<path fill="#B73242" d="M13.6,54c0.3-1,0.9-1.9,1.6-2.7C15.7,53.2,15.7,53.2,13.6,54z"/>
	<path fill="#B73242" d="M103.5,5.2c-0.7-0.2-1.3-0.6-1.8-1.2C103.6,3.4,103.8,3.5,103.5,5.2z"/>
	<path fill="#B73242" d="M111.7,14.8c1.1,0.1,2.1,0.4,2.9,1.2C113.3,16.5,112.2,16.4,111.7,14.8z"/>
	<path fill="#B73242" d="M8.6,37.1c-0.1,1.1-0.6,1.9-1.4,2.6C6.6,38.3,7.3,37.6,8.6,37.1z"/>
	<path fill="#B73242" d="M12.6,30.4c0.7-0.4,1-1.2,2-1.2c0.1,1.3-0.9,1.4-1.7,1.8C12.9,30.9,12.8,30.6,12.6,30.4z"/>
	<path fill="#B73242" d="M140.8,33.7c-0.5,0.3-1,0.6-1.5,0.9c-0.2-0.6-0.4-1.2,0.3-1.5C140.2,32.9,140.5,33.3,140.8,33.7z"/>
	<path fill="#B73242" d="M135.3,109c0.3-0.9,0.7-1.6,1.4-2.2C137.3,108.2,136.6,108.8,135.3,109z"/>
	<path fill="#B73242" d="M109.1,9.6c-0.8-0.2-1.4-0.6-1.8-1.3C108.5,7.9,108.8,8.8,109.1,9.6z"/>
	<path fill="#B73242" d="M12.4,55.8c0.2-0.8,0.6-1.4,1.3-1.8C14.1,55.2,13.2,55.5,12.4,55.8z"/>
	<path fill="#B73242" d="M125.6,112.6c-0.3,0.2-0.3,0.4-0.2,0.6c-0.3,0.1-0.6,0.3-0.9,0c0.3-0.1,0.3-0.4,0.2-0.6
		C125,112.4,125.3,112.3,125.6,112.6z"/>
	<path fill="#B73242" d="M73.3,134.8c-0.5,0.1-0.9,0.1-1.3-0.2C72.7,133.2,73,134.1,73.3,134.8z"/>
	<path fill="#B73242" d="M101.5,16.3c-0.3-0.3-0.7-0.6-0.5-0.9c0.3-0.3,0.7,0,0.9,0.3C101.8,15.9,101.6,16.1,101.5,16.3z"/>
	<path fill="#B73242" d="M131.1,100.2c0.2-0.4,0.5-0.7,0.9-0.9C131.8,99.7,131.6,100.1,131.1,100.2z"/>
	<path fill="#B73242" d="M132,99.4c-0.2-0.4-0.1-0.8,0.1-1.2C132.1,98.6,132,99,132,99.4z"/>
	<path fill="#B73242" d="M108.3,21.5c0.6,0,0.7,0.5,0.8,0.9C108.7,22.2,108.3,22,108.3,21.5z"/>
	<path fill="#B73242" d="M120,117.3c-0.1,0.5-0.5,0.7-0.8,0.9C119.2,117.7,119.6,117.6,120,117.3z"/>
	<path fill="#B73242" d="M120.4,117.1c-0.2,0.1-0.3,0.2-0.5,0.3C120,117.1,120,116.8,120.4,117.1z"/>
	<path fill="#B73242" d="M127.6,103c0.2-0.1,0.4-0.2,0.5-0.3c0.2,0.5,0.2,0.8-0.4,0.8c0,0,0.1,0,0.1,0
		C127.7,103.4,127.6,103.2,127.6,103z"/>
	<path fill="#B73242" d="M128.1,102.8c0-0.6,0.3-0.7,0.7-0.3C128.5,102.6,128.3,102.7,128.1,102.8z"/>
	<path fill="#B73242" d="M102,15.9c0.2,0.2,0.4,0.3,0.6,0.5c-0.2,0.1-0.4,0.3-0.6,0.4C102,16.4,102,16.2,102,15.9z"/>
	<path fill="#B73242" d="M107.5,21.1c0.4-0.2,0.7,0.1,0.9,0.4C107.9,21.7,107.7,21.4,107.5,21.1z"/>
	<path fill="#B73242" d="M106.7,19.8c-0.4-0.3-1.1-0.6-0.7-1.2c0.3-0.5,0.8,0,1.2,0.2C107,19.2,106.8,19.5,106.7,19.8z"/>
</g>
<text transform="matrix(1 0 0 1 36.4433 86.0911)"><tspan x="0" y="0" fill="#E0D315" font-family="'Didot-Italic'" font-size="36.3635">the</tspan><tspan x="45.8" y="0" fill="#E0D315" font-family="'Didot-Italic'" font-size="47.2517" letter-spacing="-4"> </tspan><tspan x="52.4" y="0" fill="#E0D315" font-family="'Didot-Bold'" font-size="47.2517">V</tspan><tspan x="86.5" y="0" fill="#E0D315" font-family="'Didot-Bold'" font-size="47.2517">IN</tspan><tspan x="139.8" y="0" fill="#E0D315" font-family="'Didot-Bold'" font-size="47.2517">E</tspan></text>
</svg>
