<?xml version="1.0" encoding="utf-8"?>
<!-- Generator: Adobe Illustrator 17.1.0, SVG Export Plug-In . SVG Version: 6.00 Build 0)  -->
<!DOCTYPE svg PUBLIC "-//W3C//DTD SVG 1.1//EN" "http://www.w3.org/Graphics/SVG/1.1/DTD/svg11.dtd">
<svg version="1.1" id="Layer_1" xmlns="http://www.w3.org/2000/svg" xmlns:xlink="http://www.w3.org/1999/xlink" x="0px" y="0px"
	 viewBox="0 0 250 490" enable-background="new 0 0 250 490" xml:space="preserve">
<rect fill="#D42E41" width="250" height="490"/>
<path fill="#E5D300" d="M116.2,454c11.1,0.3,22.2,0.7,33.2,1c7.8,0.2,11.2-3.2,11.5-11.4c3.1-84.3,6.7-168.6,9.8-252.9
	c0.6-15.4-5.4-28.8-16.4-39.4c-7.8-7.5-10.6-15.9-9.9-26.6c2.1-29.6,3.3-59.3,5.2-88.9c0.9-14.1-0.3-15.8-14.3-16.7
	c-20.3-1.2-19.4-1.2-19.5,19.4c-0.1,30.5-1.4,61-3.2,91.4c-0.4,5.8-4.7,12.8-9.3,16.8C87.4,160.3,80.5,177,80,197.8
	c-2.1,80-4.9,159.9-7.5,239.9c-0.4,14.1,0.8,15.4,15.2,16.2c9.5,0.5,19,0.6,28.5,0.9C116.2,454.5,116.2,454.2,116.2,454z"/>
</svg>
