<?xml version="1.0" encoding="utf-8"?>
<!-- Generator: Adobe Illustrator 17.1.0, SVG Export Plug-In . SVG Version: 6.00 Build 0)  -->
<!DOCTYPE svg PUBLIC "-//W3C//DTD SVG 1.1//EN" "http://www.w3.org/Graphics/SVG/1.1/DTD/svg11.dtd">
<svg version="1.1" id="Layer_1" xmlns="http://www.w3.org/2000/svg" xmlns:xlink="http://www.w3.org/1999/xlink" x="0px" y="0px"
	 viewBox="0 0 250 490" enable-background="new 0 0 250 490" xml:space="preserve">
<rect fill="#E5D300" width="250" height="490"/>
<path fill="#FF2900" d="M128.2,73.2c-1,40.1,9.2,76,26.7,110.4c13.2,25.8,19.5,53.7,21.3,82.6c3.2,50.7,6.4,101.5,9.5,152.2
	c1.3,21.8-4,28.8-25.7,30.8c-20.2,1.9-40.5,2.9-60.8,3.1c-15,0.1-22.7-6.9-23.7-21.5c-4-57.6-7.5-115.3-11-172.9
	c-1.7-28.2,5.4-55,14.2-81.3c9.6-28.5,12.8-57.4,10.3-87.3c-1.6-19.7-0.8-39.6-1.6-59.4c-0.6-14.3,10.5-10.4,17.6-11
	c6.8-0.6,16.3-4,17.3,9.2C123.5,43.5,126.2,59,128.2,73.2z"/>
</svg>
