<?xml version="1.0" encoding="utf-8"?>
<!-- Generator: Adobe Illustrator 17.1.0, SVG Export Plug-In . SVG Version: 6.00 Build 0)  -->
<!DOCTYPE svg PUBLIC "-//W3C//DTD SVG 1.1//EN" "http://www.w3.org/Graphics/SVG/1.1/DTD/svg11.dtd">
<svg version="1.1" id="Layer_1" xmlns="http://www.w3.org/2000/svg" xmlns:xlink="http://www.w3.org/1999/xlink" x="0px" y="0px"
	 viewBox="71.3 0 73.5 144" enable-background="new 71.3 0 73.5 144" xml:space="preserve">
<rect x="71.3" fill="#E5D300" width="73.5" height="144"/>
<path fill="#FF2900" d="M116.8,54c3.9,7.6,5.7,15.8,6.3,24.3c0.9,14.9,1.9,29.8,2.8,44.7c0.4,6.4-1.2,8.5-7.6,9.1
	c-5.9,0.6-11.9,0.9-17.9,0.9c-4.4,0-6.7-2-7-6.3c-1.2-16.9-2.2-33.9-3.2-50.8c-0.5-8.3,1.6-16.2,4.2-23.9c2.8-8.4,3.8-16.9,3-25.7
	C97,20.5,97.2,14.6,97,8.8c-0.2-4.2,3.1-3.1,5.2-3.2c2-0.2,4.8-1.2,5.1,2.7C107.6,12.8,111.6,43.8,116.8,54z"/>
</svg>
