<?xml version="1.0" encoding="utf-8"?>
<!-- Generator: Adobe Illustrator 17.1.0, SVG Export Plug-In . SVG Version: 6.00 Build 0)  -->
<!DOCTYPE svg PUBLIC "-//W3C//DTD SVG 1.1//EN" "http://www.w3.org/Graphics/SVG/1.1/DTD/svg11.dtd">
<svg version="1.1" id="Layer_1" xmlns="http://www.w3.org/2000/svg" xmlns:xlink="http://www.w3.org/1999/xlink" x="0px" y="0px"
	 viewBox="71.3 0 73.5 144" enable-background="new 71.3 0 73.5 144" xml:space="preserve">
<rect x="71.3" fill="#86E1CD" width="73.5" height="144"/>
<path fill="#5E1957" d="M100.9,2.6c3.5-0.1,6.6-0.2,10.7-0.4c0.1,2.9,0.3,5.8,0.3,8.7c0.1,16,2.4,31.6,10.5,45.8
	c5.8,10.3,8.5,21.5,8.9,33.2c0.4,12.7,0.8,25.3,1.5,37.9c0.2,3.9-1.3,6.1-4.8,6.2c-11.3,0.6-22.5,1.1-33.8,1.3
	c-3.5,0.1-5.3-1.7-5.4-5.7c-0.3-14-1.1-28-1.4-42.1c-0.2-11,2.5-21.3,7-31.4C101.1,40.9,100.6,4.7,100.9,2.6z"/>
</svg>
