<?xml version="1.0" encoding="utf-8"?>
<!-- Generator: Adobe Illustrator 17.1.0, SVG Export Plug-In . SVG Version: 6.00 Build 0)  -->
<!DOCTYPE svg PUBLIC "-//W3C//DTD SVG 1.1//EN" "http://www.w3.org/Graphics/SVG/1.1/DTD/svg11.dtd">
<svg version="1.1" id="Layer_1" xmlns="http://www.w3.org/2000/svg" xmlns:xlink="http://www.w3.org/1999/xlink" x="0px" y="0px"
	 viewBox="0 0 250 490" enable-background="new 0 0 250 490" xml:space="preserve">
<rect fill="#86E1CD" width="250" height="490"/>
<path fill="#5E1957" d="M100.9,8.8c11.9-0.4,22.3-0.8,36.3-1.4c0.4,10,1,19.9,1.1,29.7c0.3,54.6,8.3,107.5,35.7,155.9
	c19.8,35.1,28.8,73,30.2,113c1.5,43.1,2.7,86.1,5.1,129.1c0.8,13.4-4.4,20.6-16.5,21.2c-38.3,2.1-76.7,3.6-115,4.4
	c-11.8,0.3-18.1-5.8-18.4-19.5c-1-47.7-3.9-95.4-4.8-143.2c-0.7-37.3,8.5-72.6,23.8-106.8c23.2-52,27.9-106.7,19.4-162.8
	C96.9,22.6,99.7,16.1,100.9,8.8z"/>
</svg>
