<?xml version="1.0" encoding="utf-8"?>
<!-- Generator: Adobe Illustrator 17.1.0, SVG Export Plug-In . SVG Version: 6.00 Build 0)  -->
<!DOCTYPE svg PUBLIC "-//W3C//DTD SVG 1.1//EN" "http://www.w3.org/Graphics/SVG/1.1/DTD/svg11.dtd">
<svg version="1.1" id="Layer_1" xmlns="http://www.w3.org/2000/svg" xmlns:xlink="http://www.w3.org/1999/xlink" x="0px" y="0px"
	 viewBox="71.3 0 73.5 144" enable-background="new 71.3 0 73.5 144" xml:space="preserve">
<rect x="71.3" fill="#D42E41" width="73.5" height="144"/>
<path fill="#E5D300" d="M105.4,133.4c3.3,0.1,6.5,0.2,9.8,0.3c2.3,0.1,3.3-0.9,3.4-3.4c0.9-24.8,2-49.5,2.9-74.3
	c0.2-4.5-1.6-8.5-4.8-11.6c-2.3-2.2-3.1-4.7-2.9-7.8c0.6-8.7,1-17.4,1.5-26.1c0.3-4.1-0.1-4.6-4.2-4.9c-6-0.4-5.7-0.4-5.7,5.7
	c0,9-0.4,17.9-0.9,26.9c-0.1,1.7-1.4,3.8-2.7,4.9c-4.7,4-6.7,8.9-6.8,15c-0.6,23.5-1.4,47-2.2,70.5c-0.1,4.1,0.2,4.5,4.5,4.8
	c2.8,0.1,5.6,0.2,8.4,0.3C105.4,133.6,105.4,133.5,105.4,133.4z"/>
</svg>
